# xmcd
#
# Track frame offsets: 
#        150
#        18678
#        38119
#        53674
#        79271
#        95446
#        113808
#        140596
#        165777
#        186292
#        199298
#        224569
#        242847
#
# Disc length: 3472 seconds
#
# Revision: 0
# Processed by: cddbd v1.5.2PL0 Copyright (c) Steve Scherf et al.
# Submitted via: ExactAudioCopy v0.99pb4
#
DISCID=b60d8e0d
DTITLE=Raising Sand - Robert Plant and Alison Krauss
DYEAR=2007
DGENRE=Country
TTITLE0=Rich Woman
TTITLE1=Killing The Blues
TTITLE2=Sister Rosetta Goes Before Us
TTITLE3=Polly Come Home
TTITLE4=Gone, Gone, Gone (Done Moved On)
TTITLE5=Through The Morning, Through The Night
TTITLE6=Please Read The Letter
TTITLE7=Trampled Rose
TTITLE8=Fortune Teller
TTITLE9=Stick With Me Baby
TTITLE10=Nothin'
TTITLE11=Let Your Loss Be Your Lesson
TTITLE12=Your Long Journey
EXTD=
EXTT0=
EXTT1=
EXTT2=
EXTT3=
EXTT4=
EXTT5=
EXTT6=
EXTT7=
EXTT8=
EXTT9=
EXTT10=
EXTT11=
EXTT12=
PLAYORDER=
